<svg id="Layer_1" data-name="Layer 1" xmlns="http://www.w3.org/2000/svg" viewBox="0 0 100 100"><defs><style>.cls-1{fill:#fff;}</style></defs><title>Artboard 1</title><path class="cls-1" d="M80.51,26.65c1.15-3.47,1.66-8.29,1-14.9a35.64,35.64,0,0,1-7.78,8,38.4,38.4,0,0,0-47.37,0,35.61,35.61,0,0,1-7.78-8c-.71,6.62-.19,11.43,1,14.9a38.44,38.44,0,1,0,61,0m-2-6.73c-.38,5.57-2,8.36-3.16,9.67a5.27,5.27,0,0,1-3.83,2,3.54,3.54,0,0,1-3.11-2.73C68,27,69.6,25.75,71,25.06a31,31,0,0,0,7.46-5.14M29,25.07c1.44.69,3.06,1.9,2.63,3.8a3.54,3.54,0,0,1-3.16,2.73,5.27,5.27,0,0,1-3.78-2c-1.15-1.31-2.78-4.1-3.16-9.67A31.13,31.13,0,0,0,29,25.07M50,85.23A35.17,35.17,0,0,1,21,30c2.18,3.55,5.18,4.73,7.35,4.77h.12c5.67,0,10.06-8.71,1.85-12.63-.38-.18-.75-.38-1.11-.58a35,35,0,0,1,41.55,0c-.36.2-.73.4-1.11.58-8.21,3.92-3.81,12.63,1.85,12.63h.11c2.16,0,5.16-1.22,7.35-4.77a35.18,35.18,0,0,1-29,55.2"/><path class="cls-1" d="M50,69.33a40.53,40.53,0,0,1-9.44-1.08,33.38,33.38,0,0,1-9.37-3.75,16.09,16.09,0,0,0,7.75,8,24.7,24.7,0,0,0,22.14,0,16.06,16.06,0,0,0,7.74-8,33.59,33.59,0,0,1-9.37,3.74A40.94,40.94,0,0,1,50,69.33"/><path class="cls-1" d="M71.08,41.85a17.53,17.53,0,0,0-7.16,1.64A17.28,17.28,0,0,0,58,47.9a12.38,12.38,0,0,0-3,6.56,39.4,39.4,0,0,1,4.18-3.67.71.71,0,0,0,.06.32,7.46,7.46,0,1,0,13.53-6.31.7.7,0,0,0-.18-.23,42.36,42.36,0,0,1,5.47-.87,12.67,12.67,0,0,0-7-1.85"/><path class="cls-1" d="M40.77,51.1a.7.7,0,0,0,.06-.32A39.82,39.82,0,0,1,45,54.46a12.37,12.37,0,0,0-3-6.55,17.22,17.22,0,0,0-5.89-4.41,17.5,17.5,0,0,0-7.16-1.64,12.67,12.67,0,0,0-7,1.85,42.14,42.14,0,0,1,5.47.87.7.7,0,0,0-.18.22A7.46,7.46,0,1,0,40.77,51.1"/></svg>