<?xml version="1.0" encoding="utf-8"?>
<!-- Generator: Adobe Illustrator 21.1.0, SVG Export Plug-In . SVG Version: 6.00 Build 0)  -->
<svg version="1.1" id="Layer_1" xmlns="http://www.w3.org/2000/svg" xmlns:xlink="http://www.w3.org/1999/xlink" x="0px" y="0px"
	 viewBox="0 0 100 100" style="enable-background:new 0 0 100 100;" xml:space="preserve">
<style type="text/css">
	.st0{fill:#231F20;}
</style>
<title>Artboard 1 copy 2</title>
<path class="st0" d="M80,26l6.5-3.2c0.2-0.1,0.4-0.3,0.4-0.5l1.4-3c0.2-0.5,0-1.1-0.5-1.3l-13.6-6.4c-0.5-0.2-1,0-1.3,0.5l-1.5,3.2
	c-0.2,0.5,0,1.1,0.5,1.3l7.1,3.4l-3.3,1.6c-15.7-14.3-40-13.1-54.3,2.6s-13.1,40,2.6,54.3c7.1,6.4,16.3,10,25.9,10
	c24.6,0,38.4-17.2,38.4-38.4C88.4,41.3,85.5,32.8,80,26 M80.6,32.6l-7.1-3.4l3.6-1.8C78.4,29.1,79.6,30.8,80.6,32.6 M76.1,75
	C69.8,81.7,60.8,85.2,50,85.2c-19.5,0-35.2-15.8-35.2-35.2c0-19.5,15.8-35.2,35.2-35.2c8.3,0,16.4,2.9,22.8,8.3l-6.4,3.2
	c-0.2,0.1-0.3,0.3-0.4,0.5l-1.5,3.1c-0.1,0.2-0.1,0.5,0,0.7c0,0.1,0.1,0.3,0.2,0.4c0.1,0.1,0.2,0.1,0.3,0.2l13.8,6.5
	c0.2,0.1,0.5,0.1,0.7,0c0.2-0.1,0.4-0.3,0.6-0.5l1.4-3.1c2.5,4.9,3.8,10.4,3.8,15.9C85.2,59.8,82,68.7,76.1,75"/>
<path class="st0" d="M32.2,35c0.2,0.5,0.8,0.7,1.3,0.5c0,0,0,0,0,0l2.4-1.4l-0.8,6.2c0,0.2,0,0.5,0.1,0.7l0.9,1.6
	c0.2,0.4,0.7,0.6,1.1,0.5c0.1,0,0.2,0,0.2-0.1l6.5-3.7c0.2-0.1,0.4-0.4,0.5-0.6c0.1-0.3,0-0.6-0.1-0.8l-0.9-1.6
	c-0.2-0.5-0.8-0.7-1.3-0.5c0,0,0,0,0,0l-2.6,1.5l0.9-6.4c0-0.2,0-0.5-0.1-0.7l-0.8-1.5c-0.1-0.2-0.3-0.4-0.6-0.5
	c-0.2-0.1-0.5-0.1-0.8,0.1l-6.3,3.7c-0.2,0.1-0.4,0.4-0.5,0.6c-0.1,0.3,0,0.6,0.1,0.8L32.2,35"/>
<path class="st0" d="M57.6,35c0.1,0,0.2-0.1,0.3-0.1c0.2-0.2,0.4-0.4,0.4-0.7l0.5-2.5c0.1-0.6-0.2-1.1-0.8-1.2l-4.9-1.2l7.1-6.2
	c0.2-0.1,0.3-0.4,0.3-0.6l0.4-2.4c0.1-0.3,0-0.6-0.1-0.8c-0.1-0.2-0.4-0.4-0.6-0.5l-10-2.5c-0.5-0.1-1.1,0.2-1.2,0.8l-0.5,2.5
	c-0.1,0.3,0,0.6,0.1,0.8c0.1,0.2,0.4,0.4,0.6,0.5l4.6,1.1l-7,6.1c-0.2,0.1-0.3,0.4-0.3,0.6l-0.5,2.5c-0.1,0.3,0,0.6,0.1,0.8
	c0.1,0.2,0.4,0.4,0.6,0.5L57.1,35C57.3,35,57.4,35,57.6,35"/>
<path class="st0" d="M60.5,67.8c-5.1,3.3-7.8,8.3-6,11.1c1,1.6,3.3,3.3,5.8,1.8c1.8-1.2,2.7-3.9,5-5.4s5.2-1.2,6.9-2.3
	c2.2-1.4,1.8-4.5,0.8-6.1C71.2,64.1,65.6,64.5,60.5,67.8"/>
<path class="st0" d="M76,42.3c-3.1,6.1-11.2,9.5-17.3,8.1c-0.5,0.9-1.1,1.4-0.6,1.8c9.2,7,19,2.4,19.6-9.2
	C77.7,42.4,77,42.4,76,42.3"/>
<path class="st0" d="M47.3,55.7c-3.1,6.1-11.2,9.5-17.3,8.1c-0.5,0.9-1.1,1.4-0.6,1.8c9.2,7,19,2.4,19.6-9.2
	C49,55.8,48.3,55.8,47.3,55.7"/>
</svg>
