<?xml version="1.0" encoding="utf-8"?>
<!-- Generator: Adobe Illustrator 21.1.0, SVG Export Plug-In . SVG Version: 6.00 Build 0)  -->
<svg version="1.1" id="Layer_1" xmlns="http://www.w3.org/2000/svg" xmlns:xlink="http://www.w3.org/1999/xlink" x="0px" y="0px"
	 viewBox="0 0 100 100" style="enable-background:new 0 0 100 100;" xml:space="preserve">
<style type="text/css">
	.st0{fill:#231F20;}
</style>
<title>Artboard 1 copy</title>
<path class="st0" d="M85.4,36.3c2.1-2.9,3-6.6,2.4-10.2c-0.6-3.4-2.6-6.3-5.7-7.1c-2.7-0.7-5.2,0-7.7,1.9c-1.3-1.1-2.7-2.1-4.1-3
	c-1.5-2.3-3.6-4.1-6.1-5.2c-2.3-1.1-4.9-1.1-7.3-0.1c-4.9-1-9.9-1-14.8,0c-2.3-1-5-0.9-7.3,0.1c-2.5,1.1-4.6,2.9-6.1,5.2
	c-1.4,0.9-2.8,1.9-4.1,3c-2.4-1.9-5-2.6-7.7-1.9c-3.1,0.9-5.1,3.7-5.7,7.1c-0.6,3.6,0.3,7.2,2.4,10.2C6,56.1,15.8,78.4,35.6,86
	s42.1-2.1,49.7-21.9C88.8,55.1,88.8,45.2,85.4,36.3 M49.5,85.4c-19.5,0-35.2-15.8-35.2-35.2c0-3.8,0.6-7.5,1.8-11.1
	c4.7,4.3,15.1,10.8,15.5,11.1c0.3-0.4,12.3-13.2,15-19.6c2.8-6.8,1.8-12-0.9-15.3l-0.1-0.1c2.6-0.3,5.2-0.3,7.8,0l-0.1,0.1
	c-2.7,3.4-3.7,8.6-0.9,15.3c2.7,6.3,14.6,19.2,15,19.6c0.3-0.3,10.7-6.8,15.4-11.1c6.1,18.5-3.9,38.4-22.3,44.5
	C57.1,84.8,53.3,85.4,49.5,85.4"/>
<path class="st0" d="M69,55.3c-6.4-1.2-12.9-1.8-19.5-1.7c-6.5,0-13,0.5-19.4,1.7c-1.3,0.2-2.3,1.3-2.3,2.7
	c0,9.3,7.2,18.7,21.8,18.7s21.8-9.4,21.8-18.7C71.3,56.6,70.3,55.5,69,55.3 M67.5,60.1c-0.1,0.6-0.2,1.2-0.3,2s-0.3,1.2-1.6,1
	c-2.5-0.3-29.4-0.3-31.9,0c-1.3,0.2-1.4-0.2-1.6-1s-0.3-1.4-0.3-2c-0.1-1,0-1.6,1.6-1.9c10.8-1.7,21.7-1.7,32.5,0
	C67.5,58.5,67.6,59.2,67.5,60.1"/>
</svg>
