<?xml version="1.0" encoding="utf-8"?>
<!-- Generator: Adobe Illustrator 21.1.0, SVG Export Plug-In . SVG Version: 6.00 Build 0)  -->
<svg version="1.1" id="Layer_1" xmlns="http://www.w3.org/2000/svg" xmlns:xlink="http://www.w3.org/1999/xlink" x="0px" y="0px"
	 viewBox="0 0 100 100" style="enable-background:new 0 0 100 100;" xml:space="preserve">
<style type="text/css">
	.st0{fill:#231F20;}
</style>
<title>Artboard 1 copy 11</title>
<path class="st0" d="M85.9,36.1c0-0.1,0-0.3,0-0.5v-0.7c0-0.5-0.1-0.6-0.3-0.8l-0.6-0.3c-8.9-19.3-31.7-27.7-51-18.9
	c-8.3,3.8-15,10.5-18.9,18.9l-0.6,0.3c-0.3,0.1-0.3,0.2-0.3,0.8v0.7c0,0.2,0,0.4,0,0.5c-7.6,19.8,2.2,42.1,22.1,49.7
	s42.1-2.2,49.7-22.1C89.3,54.8,89.3,45,85.9,36.1 M50.4,14.6c12.7,0,24.5,6.9,30.7,18c-4.9-0.7-9.8-0.8-14.7-0.5
	c-3.9,0.3-7.6,1.2-11.1,2.9c-3.1,1.4-6.7,1.4-9.9,0c-3.5-1.7-7.2-2.7-11.1-2.9c-4.9-0.4-9.8-0.2-14.7,0.5
	C25.9,21.5,37.7,14.7,50.4,14.6 M50.4,85.1c-19.4,0-35.2-15.7-35.2-35.2c0-3.8,0.6-7.6,1.8-11.2c0.9,1.7,1.4,3.6,1.6,5.6
	c0.8,5.4,3.4,8.8,7.7,10.4c4,1.5,8.4,1.5,12.4-0.1c2.3-0.9,4.2-2.4,5.6-4.5c2.7-3.9,1.8-6.3,3.2-9.7c1.2-2.9,4.5-2.9,5.7,0
	c1.4,3.3,0.6,5.8,3.2,9.7c1.4,2,3.3,3.6,5.6,4.5c4,1.6,8.4,1.6,12.4,0.1c4.3-1.6,6.9-5,7.7-10.4c0.2-1.9,0.8-3.8,1.6-5.6
	C90,57.2,80,77.1,61.6,83.3C58,84.5,54.2,85.1,50.4,85.1"/>
<path class="st0" d="M66.6,63c-10.4,7.2-21.9,7.2-32.2,0c-1.2-0.9-2.4,0.6-1.5,2c6.1,9.7,18.9,12.7,28.6,6.7c2.7-1.7,5-4,6.7-6.7
	C68.9,63.6,67.8,62.1,66.6,63"/>
</svg>
