<?xml version="1.0" encoding="utf-8"?>
<!-- Generator: Adobe Illustrator 21.1.0, SVG Export Plug-In . SVG Version: 6.00 Build 0)  -->
<svg version="1.1" id="Layer_1" xmlns="http://www.w3.org/2000/svg" xmlns:xlink="http://www.w3.org/1999/xlink" x="0px" y="0px"
	 viewBox="0 0 100 100" style="enable-background:new 0 0 100 100;" xml:space="preserve">
<style type="text/css">
	.st0{fill:#231F20;}
</style>
<title>Artboard 1</title>
<path class="st0" d="M80.5,26.6c1.2-3.5,1.7-8.3,1-14.9c-2.2,3.1-4.8,5.8-7.8,8c-13.9-10.9-33.5-10.9-47.4,0c-3-2.2-5.6-4.9-7.8-8
	c-0.7,6.6-0.2,11.4,1,14.9c-12.9,16.8-9.7,41,7.1,53.9s41,9.7,53.9-7.1C91.2,59.6,91.2,40.5,80.5,26.6 M78.6,19.9
	c-0.4,5.6-2,8.4-3.2,9.7c-0.9,1.2-2.3,1.9-3.8,2c-1.5-0.1-2.8-1.2-3.1-2.7C68,27,69.6,25.8,71,25.1c2.7-1.3,5.2-3.1,7.5-5.1
	 M29,25.1c1.4,0.7,3.1,1.9,2.6,3.8c-0.3,1.5-1.6,2.6-3.2,2.7c-1.5-0.1-2.9-0.8-3.8-2c-1.1-1.3-2.8-4.1-3.2-9.7
	C23.8,22,26.3,23.7,29,25.1 M50,85.2c-19.4,0.1-35.2-15.6-35.3-35.1c0-7.2,2.2-14.3,6.3-20.2c2.2,3.5,5.2,4.7,7.4,4.8h0.1
	c5.7,0,10.1-8.7,1.9-12.6c-0.4-0.2-0.8-0.4-1.1-0.6c12.4-9.1,29.2-9.1,41.6,0c-0.4,0.2-0.7,0.4-1.1,0.6c-8.2,3.9-3.8,12.6,1.8,12.6
	h0.1c2.2,0,5.2-1.2,7.3-4.8C90,46,86,67.9,70.1,78.9C64.1,83,57.1,85.2,50,85.2"/>
<path class="st0" d="M50,69.3c-3.2,0-6.3-0.4-9.4-1.1c-3.3-0.8-6.5-2-9.4-3.8c1.5,3.5,4.3,6.3,7.8,8c7,3.5,15.2,3.5,22.1,0
	c3.5-1.7,6.2-4.5,7.7-8c-2.9,1.7-6.1,3-9.4,3.7C56.4,69,53.2,69.3,50,69.3"/>
<path class="st0" d="M71.1,41.8c-2.5,0-4.9,0.6-7.2,1.6c-2.3,1-4.3,2.5-5.9,4.4c-1.6,1.8-2.7,4.1-3,6.6c1.3-1.3,2.7-2.5,4.2-3.7
	c0,0.1,0,0.2,0.1,0.3c1.7,3.7,6.2,5.4,9.9,3.6s5.4-6.2,3.6-9.9l0,0c0-0.1-0.1-0.2-0.2-0.2c1.8-0.4,3.6-0.7,5.5-0.9
	C76,42.4,73.5,41.8,71.1,41.8"/>
<path class="st0" d="M40.8,51.1c0-0.1,0.1-0.2,0.1-0.3c1.5,1.1,2.9,2.4,4.2,3.7c-0.3-2.4-1.4-4.7-3-6.5c-1.6-1.9-3.6-3.4-5.9-4.4
	c-2.2-1-4.7-1.6-7.2-1.6c-2.5-0.1-4.9,0.6-7,1.8c1.8,0.2,3.7,0.5,5.5,0.9c-0.1,0.1-0.1,0.1-0.2,0.2c-1.7,3.7-0.1,8.2,3.6,9.9
	C34.6,56.5,39,54.8,40.8,51.1"/>
</svg>
