<svg id="Layer_1" data-name="Layer 1" xmlns="http://www.w3.org/2000/svg" viewBox="0 0 100 100"><defs><style>.cls-1{fill:#fff;}</style></defs><title>Artboard 1 copy 2</title><path class="cls-1" d="M80,26,86.5,22.8a1,1,0,0,0,.45-.45l1.4-3a1,1,0,0,0-.47-1.29L74.32,11.65a1,1,0,0,0-1.29.46l-1.49,3.16A1,1,0,0,0,72,16.57l7.1,3.36-3.27,1.62A38.44,38.44,0,1,0,50,88.44c24.64,0,38.44-17.21,38.44-38.44A38.27,38.27,0,0,0,80,26m.59,6.58-7.1-3.35,3.55-1.77a35.33,35.33,0,0,1,3.54,5.12M76.13,75C69.83,81.69,60.8,85.24,50,85.24A35.23,35.23,0,1,1,72.72,23.1l-6.38,3.16a1,1,0,0,0-.44.45l-1.48,3.15a1,1,0,0,0,0,.74,1,1,0,0,0,.23.36,1,1,0,0,0,.27.19L78.7,37.68a1,1,0,0,0,.74,0,1,1,0,0,0,.55-.5l1.45-3.1A35,35,0,0,1,85.23,50c0,9.85-3.23,18.73-9.11,25"/><path class="cls-1" d="M32.18,35a1,1,0,0,0,1.35.45l2.39-1.39-.85,6.25a1.18,1.18,0,0,0,.13.69l.86,1.62a1,1,0,0,0,1.13.54.91.91,0,0,0,.23-.09l6.45-3.73a1,1,0,0,0,.46-.63,1.14,1.14,0,0,0-.1-.81l-.86-1.63A1,1,0,0,0,42,35.82l-2.57,1.49.86-6.37a1.17,1.17,0,0,0-.13-.69l-.82-1.55a1.08,1.08,0,0,0-.6-.52.89.89,0,0,0-.75.08l-6.33,3.67a1,1,0,0,0-.46.63,1.19,1.19,0,0,0,.1.82L32.18,35"/><path class="cls-1" d="M57.56,35a.91.91,0,0,0,.32-.13,1,1,0,0,0,.42-.66l.48-2.49A1.1,1.1,0,0,0,58,30.48l-4.91-1.23,7.13-6.18a1,1,0,0,0,.33-.58L61,20.13a1.12,1.12,0,0,0-.14-.8,1,1,0,0,0-.63-.48L50.18,16.33a1,1,0,0,0-1.17.78l-.49,2.49a1.11,1.11,0,0,0,.14.79,1,1,0,0,0,.63.48L53.93,22l-7,6.06a1,1,0,0,0-.33.58l-.49,2.49a1.14,1.14,0,0,0,.14.8,1,1,0,0,0,.63.47L57.14,35a.89.89,0,0,0,.42,0"/><path class="cls-1" d="M60.46,67.79c-5.13,3.31-7.82,8.26-6,11.07,1,1.55,3.32,3.34,5.77,1.76,1.79-1.15,2.74-3.91,5-5.39s5.17-1.15,6.94-2.29c2.18-1.4,1.83-4.49.82-6.05-1.81-2.8-7.43-2.39-12.56.91"/><path class="cls-1" d="M76,42.28c-3.11,6.14-11.21,9.49-17.29,8.07-.53.89-1.07,1.39-.61,1.75,9.2,7,19,2.36,19.64-9.16,0-.58-.71-.49-1.73-.65"/><path class="cls-1" d="M47.28,55.68C44.17,61.82,36.07,65.16,30,63.74c-.53.89-1.07,1.39-.62,1.75,9.2,7,19,2.36,19.64-9.16,0-.58-.71-.49-1.73-.66"/></svg>