<?xml version="1.0" encoding="utf-8"?>
<!-- Generator: Adobe Illustrator 21.1.0, SVG Export Plug-In . SVG Version: 6.00 Build 0)  -->
<svg version="1.1" id="Layer_1" xmlns="http://www.w3.org/2000/svg" xmlns:xlink="http://www.w3.org/1999/xlink" x="0px" y="0px"
	 viewBox="0 0 100 100" style="enable-background:new 0 0 100 100;" xml:space="preserve">
<style type="text/css">
	.st0{fill:#231F20;}
</style>
<title>Artboard 1 copy 7</title>
<circle class="st0" cx="62.6" cy="49.4" r="6.4"/>
<circle class="st0" cx="33.1" cy="49.4" r="6.4"/>
<path class="st0" d="M41.4,32.2c0.6-0.6-1.3-2.7-1.8-2.2c-4.1,3.5-9.7,5-15,4c-0.8-0.1-1.4,2.6-0.5,2.8
	C30.3,37.9,36.6,36.2,41.4,32.2"/>
<path class="st0" d="M71,33.9c-5.3,0.9-10.8-0.5-15-4c-0.5-0.5-2.6,1.5-1.8,2.2c4.8,4.1,11.1,5.8,17.3,4.6
	C72.4,36.4,71.8,33.7,71,33.9"/>
<path class="st0" d="M38.7,70c8.1,1.7,14.3,1.4,22,0.1c1.7-0.8-0.4-5.4-2-4.5c-5.9,1.1-11.9,1.1-17.8-0.1
	C39.1,64.7,36.9,69.1,38.7,70z"/>
<path class="st0" d="M50,11.6c-21.2,0-38.4,17.2-38.4,38.4S28.8,88.4,50,88.4S88.4,71.2,88.4,50c0-21.2-17.1-38.4-38.3-38.4
	C50.1,11.6,50,11.6,50,11.6z M85.1,50c0,19.5-15.8,35.2-35.2,35.2S14.7,69.5,14.7,50c0-19.5,15.8-35.2,35.2-35.2
	C69.3,14.8,85.1,30.5,85.1,50C85.1,50,85.1,50,85.1,50z"/>
</svg>
