<svg id="Layer_1" data-name="Layer 1" xmlns="http://www.w3.org/2000/svg" viewBox="0 0 100 100"><defs><style>.cls-1{fill:#fff;}</style></defs><title>Artboard 1 copy 7</title><circle class="cls-1" cx="62.56" cy="49.36" r="6.41"/><circle class="cls-1" cx="33.09" cy="49.36" r="6.41"/><path class="cls-1" d="M41.42,32.19c.64-.64-1.28-2.69-1.79-2.18a18.07,18.07,0,0,1-15,4c-.77-.13-1.41,2.56-.51,2.82a21.21,21.21,0,0,0,17.3-4.61"/><path class="cls-1" d="M71,33.86a18.51,18.51,0,0,1-15-4c-.51-.51-2.56,1.54-1.79,2.18a20.66,20.66,0,0,0,17.3,4.61c.9-.26.26-2.95-.51-2.82"/><path class="cls-1" d="M38.72,70c8.07,1.67,14.35,1.41,22,.13,1.67-.77-.38-5.38-2.05-4.48A46.14,46.14,0,0,1,40.9,65.5C39.11,64.73,36.93,69.09,38.72,70Z"/><path class="cls-1" d="M50,11.56A38.44,38.44,0,1,0,88.44,50,38.39,38.39,0,0,0,50,11.56ZM85.11,50A35.23,35.23,0,1,1,49.87,14.77,35.21,35.21,0,0,1,85.11,50Z"/></svg>