<svg id="Layer_1" data-name="Layer 1" xmlns="http://www.w3.org/2000/svg" viewBox="0 0 100 100"><defs><style>.cls-1{fill:#fff;}</style></defs><title>Artboard 1 copy 11</title><path class="cls-1" d="M85.87,36.06c0-.13,0-.29,0-.52v-.68c0-.53-.06-.63-.34-.77l-.61-.29a38.43,38.43,0,0,0-69.83,0l-.61.29c-.28.14-.34.25-.34.77v.68c0,.23,0,.39,0,.52a38.44,38.44,0,1,0,71.74,0M50.43,14.65a35.24,35.24,0,0,1,30.7,18,68.08,68.08,0,0,0-14.69-.45,30,30,0,0,0-11.09,2.92,12,12,0,0,1-9.86,0,29.93,29.93,0,0,0-11.08-2.92,68.09,68.09,0,0,0-14.69.45,35.24,35.24,0,0,1,30.7-18m0,70.45A35.2,35.2,0,0,1,17,38.72a16.64,16.64,0,0,1,1.61,5.57c.77,5.4,3.41,8.78,7.71,10.39a17.25,17.25,0,0,0,12.41-.13,11.82,11.82,0,0,0,5.58-4.45c2.65-3.89,1.85-6.32,3.22-9.67,1.19-2.92,4.54-2.92,5.73,0,1.37,3.34.57,5.78,3.22,9.67a11.83,11.83,0,0,0,5.58,4.45,17.26,17.26,0,0,0,12.41.13c4.3-1.62,6.95-5,7.71-10.39a16.63,16.63,0,0,1,1.61-5.57A35.2,35.2,0,0,1,50.43,85.1"/><path class="cls-1" d="M66.55,63c-10.39,7.24-21.91,7.2-32.24,0-1.24-.87-2.36.63-1.52,2a20.78,20.78,0,0,0,35.28,0c.84-1.39-.28-2.89-1.52-2"/></svg>