<?xml version="1.0" encoding="utf-8"?>
<!-- Generator: Adobe Illustrator 21.1.0, SVG Export Plug-In . SVG Version: 6.00 Build 0)  -->
<svg version="1.1" id="Layer_1" xmlns="http://www.w3.org/2000/svg" xmlns:xlink="http://www.w3.org/1999/xlink" x="0px" y="0px"
	 viewBox="0 0 100 100" style="enable-background:new 0 0 100 100;" xml:space="preserve">
<style type="text/css">
	.st0{fill:#231F20;}
</style>
<title>Artboard 1 copy 10</title>
<path class="st0" d="M50,11.6c-21.2,0-38.4,17.2-38.4,38.4S28.8,88.4,50,88.4S88.4,71.2,88.4,50C88.4,28.8,71.2,11.6,50,11.6
	C50,11.6,50,11.6,50,11.6z M50,85.2c-19.5,0-35.2-15.8-35.2-35.2c0-19.5,15.8-35.2,35.2-35.2c19.5,0,35.2,15.8,35.2,35.2
	C85.2,69.4,69.4,85.2,50,85.2z"/>
<path class="st0" d="M78,43.4c-4.3-5-18-3.2-22,3.6c-0.3,0.5,0.5,1.2,1.4,1.8c2.7-1.9,5.9-3,9.2-3.2c0,3.6,2.8,6.5,6.4,6.5
	C78.1,52.1,80.5,46.3,78,43.4"/>
<path class="st0" d="M43,43.4c-4.3-5-17.9-3.2-22,3.6c-0.3,0.5,0.5,1.2,1.4,1.8c2.7-1.9,5.9-3,9.2-3.2c0,3.6,2.8,6.5,6.4,6.5
	C43.1,52.1,45.5,46.3,43,43.4"/>
<path class="st0" d="M60.6,63.9c-7.4-2-15.4-0.6-21.7,3.9c-1.5,1.1,1.3,5.2,2.9,4c5.1-3.5,11.5-4.7,17.5-3.1
	C61.1,69.1,62.5,64.4,60.6,63.9"/>
</svg>
