<svg id="Layer_1" data-name="Layer 1" xmlns="http://www.w3.org/2000/svg" viewBox="0 0 100 100"><defs><style>.cls-1{fill:#fff;}</style></defs><title>Artboard 1 copy 3</title><path class="cls-1" d="M81.49,53.53c.07-.33.13-.66.17-1a14.19,14.19,0,0,0-1-7.06A14,14,0,0,0,76,39.85a20.32,20.32,0,0,0-3.74-2.17,9.49,9.49,0,0,0,.36-4,10.7,10.7,0,0,0-2.64-5.82,12.48,12.48,0,0,0-5.56-3.28c-4-1.25-8.12-1.2-11.95-1.48a27.88,27.88,0,0,1-5.4-.68,4.79,4.79,0,0,1-1.89-.91,2.15,2.15,0,0,1-.71-1.42,6.49,6.49,0,0,1,.14-2.24c.09-.43.19-.78.33-1.3a10.82,10.82,0,0,0,.36-1.74,3.77,3.77,0,0,0-.08-1.38,2.65,2.65,0,0,0-.57-1.06,2.55,2.55,0,0,0-1.09-.69A3.41,3.41,0,0,0,42,11.61l-.51.09-.36.08a17.84,17.84,0,0,0-3.07,1,20.39,20.39,0,0,0-9.37,8.25,17.36,17.36,0,0,0-2.2,5.88,13.69,13.69,0,0,0,.37,6.26,22.86,22.86,0,0,0,1.82,4,20.55,20.55,0,0,0-5.2,3,13.78,13.78,0,0,0-4.41,5.85,14.35,14.35,0,0,0-.7,7.11c0,.16.07.32.1.48-4.78,1.77-6.93,6-6.93,13.3,0,15.84,19.72,21.48,38.18,21.48,25,0,38.7-7.63,38.7-21.48,0-7.46-2.14-11.72-6.95-13.42M49.74,85.37c-17,0-35.1-4.84-35.1-18.42,0-6.37,1.75-9.26,4.92-10.46a11.29,11.29,0,0,0,2.17,2.8,17,17,0,0,0,5.66,3.46,19.8,19.8,0,0,1-4.63-4.36,9.53,9.53,0,0,1-2-5.48A11.81,11.81,0,0,1,22,47.35a10.9,10.9,0,0,1,3.74-4.06,21.74,21.74,0,0,1,5.55-2.44,17.48,17.48,0,0,0,2.28,2.09,22.38,22.38,0,0,1-5-10.17A13.64,13.64,0,0,1,31.15,22.6,18.31,18.31,0,0,1,39.42,16a20,20,0,0,1,2.06-.65l-.05.19c-.12.42-.3,1-.41,1.52a9.8,9.8,0,0,0-.22,3.55,5.85,5.85,0,0,0,2,3.62,8.31,8.31,0,0,0,3.33,1.63,27.56,27.56,0,0,0,6.21.69c4,.07,7.79,0,11.33.76a10.42,10.42,0,0,1,4.63,2.23A8.73,8.73,0,0,1,70.82,34a8.29,8.29,0,0,1-.43,5.29,13.83,13.83,0,0,1-3.33,4.62,14,14,0,0,0,3.07-2.6A21.43,21.43,0,0,1,73.81,43a11.29,11.29,0,0,1,3.95,3.9,11.62,11.62,0,0,1,1.5,5.52A9.32,9.32,0,0,1,77.59,58a18.42,18.42,0,0,1-4.48,4.49,16.09,16.09,0,0,0,5.54-3.65,10.73,10.73,0,0,0,1.8-2.47c3.21,1.11,4.92,4,4.92,10.59,0,16-22.31,18.42-35.62,18.42"/><path class="cls-1" d="M47,53a9.78,9.78,0,1,0-9.78,9.75A9.78,9.78,0,0,0,47,53m-9.78,7.91A7.91,7.91,0,1,1,45.2,53a7.94,7.94,0,0,1-7.93,7.91"/><ellipse class="cls-1" cx="39.71" cy="52.97" rx="4.43" ry="4.42"/><path class="cls-1" d="M62.74,43.22A9.75,9.75,0,1,0,72.52,53a9.78,9.78,0,0,0-9.78-9.75m0,17.66A7.91,7.91,0,1,1,70.68,53a7.93,7.93,0,0,1-7.94,7.91"/><path class="cls-1" d="M60.29,48.56A4.42,4.42,0,1,0,64.72,53a4.42,4.42,0,0,0-4.43-4.42"/><path class="cls-1" d="M50,65.61A7.36,7.36,0,1,0,57.38,73,7.37,7.37,0,0,0,50,65.61"/></svg>