<svg id="Layer_1" data-name="Layer 1" xmlns="http://www.w3.org/2000/svg" viewBox="0 0 100 100"><defs><style>.cls-1{fill:#fff;}</style></defs><title>Artboard 1 copy 5</title><path class="cls-1" d="M50,11.56A38.44,38.44,0,1,0,88.44,50,38.44,38.44,0,0,0,50,11.56Zm0,73.67A35.23,35.23,0,1,1,85.23,50,35.27,35.27,0,0,1,50,85.23Z"/><circle class="cls-1" cx="35.27" cy="43.07" r="6.41"/><circle class="cls-1" cx="64.73" cy="43.07" r="6.41"/><path class="cls-1" d="M50,60c-5.82,0-10.36,3.92-12.6,8.32-.6,1.18.2,2.45,1.09,1.72,7.42-6.15,15.66-6.11,23,0,.89.73,1.69-.54,1.09-1.72C60.36,63.9,55.81,60,50,60"/></svg>