<?xml version="1.0" encoding="utf-8"?>
<!-- Generator: Adobe Illustrator 21.1.0, SVG Export Plug-In . SVG Version: 6.00 Build 0)  -->
<svg version="1.1" id="Layer_1" xmlns="http://www.w3.org/2000/svg" xmlns:xlink="http://www.w3.org/1999/xlink" x="0px" y="0px"
	 viewBox="0 0 100 100" style="enable-background:new 0 0 100 100;" xml:space="preserve">
<title>Artboard 1 copy 4</title>
<circle cx="64.7" cy="47.9" r="6.4"/>
<circle cx="35.3" cy="47.9" r="6.4"/>
<path d="M43.6,30.7c0.7-0.6-1.2-2.6-1.8-2.1c-4.2,3.5-9.7,5-15,4c-0.7-0.1-1.4,2.6-0.5,2.8C32.4,36.4,38.8,34.7,43.6,30.7"/>
<path d="M73.2,32.3c-5.3,1-10.8-0.5-15-4c-0.6-0.5-2.5,1.5-1.8,2.1c4.8,4,11.1,5.7,17.3,4.6C74.6,34.9,73.9,32.2,73.2,32.3"/>
<path d="M64.2,63.7c-7.4-2-15.4-0.6-21.7,3.9c-1.5,1.1,1.3,5.2,2.9,4c5.1-3.5,11.5-4.7,17.5-3.1C64.7,68.9,66.1,64.2,64.2,63.7"/>
<path d="M50,11.6c-21.2,0-38.4,17.2-38.4,38.4S28.8,88.4,50,88.4S88.4,71.2,88.4,50S71.2,11.6,50,11.6C50,11.6,50,11.6,50,11.6z
	 M50,85.2c-19.5,0-35.2-15.8-35.2-35.2c0-19.5,15.8-35.2,35.2-35.2c19.5,0,35.2,15.8,35.2,35.2C85.2,69.4,69.4,85.2,50,85.2z"/>
</svg>
