<svg id="Layer_1" data-name="Layer 1" xmlns="http://www.w3.org/2000/svg" viewBox="0 0 100 100"><defs><style>.cls-1{fill:#fff;}</style></defs><title>Artboard 1 copy 10</title><path class="cls-1" d="M50,11.56A38.44,38.44,0,1,0,88.44,50,38.43,38.43,0,0,0,50,11.56Zm0,73.67A35.23,35.23,0,1,1,85.23,50,35.28,35.28,0,0,1,50,85.23Z"/><path class="cls-1" d="M78,43.39c-4.29-5-17.95-3.23-22,3.58-.29.51.48,1.23,1.43,1.81a18.3,18.3,0,0,1,9.21-3.22,6.45,6.45,0,0,0,6.37,6.51c5.08,0,7.51-5.75,5-8.68"/><path class="cls-1" d="M43,43.39c-4.29-5-17.94-3.23-22,3.58-.29.5.48,1.23,1.43,1.8a18.29,18.29,0,0,1,9.21-3.22A6.45,6.45,0,0,0,38,52.07c5.08,0,7.51-5.75,5-8.68"/><path class="cls-1" d="M60.6,63.87a26.14,26.14,0,0,0-21.69,3.86c-1.54,1.11,1.35,5.16,2.89,4a21.51,21.51,0,0,1,17.5-3.12c1.82.48,3.25-4.24,1.3-4.78"/></svg>