<svg id="Layer_1" data-name="Layer 1" xmlns="http://www.w3.org/2000/svg" viewBox="0 0 100 100"><defs><style>.cls-1{fill:#fff;}</style></defs><title>Artboard 1 copy 8</title><path class="cls-1" d="M50,11.56A38.44,38.44,0,1,0,88.44,50,38.44,38.44,0,0,0,50,11.56Zm0,73.67A35.23,35.23,0,1,1,85.23,50,35.27,35.27,0,0,1,50,85.23Z"/><path class="cls-1" d="M50,62.6c-5.81,0-10.36,3.92-12.6,8.32-.6,1.18.2,2.45,1.09,1.72,7.38-6.11,15.61-6.15,23,0,.89.73,1.69-.54,1.09-1.72-2.25-4.4-6.79-8.32-12.6-8.32"/><path class="cls-1" d="M40.77,48.33a.69.69,0,0,0,.06-.32A39.92,39.92,0,0,1,45,51.69a12.39,12.39,0,0,0-3-6.55,17.26,17.26,0,0,0-5.89-4.41,17.49,17.49,0,0,0-7.16-1.64A12.43,12.43,0,0,0,22,40.95a41.34,41.34,0,0,1,5.4.85.68.68,0,0,0-.18.22,7.46,7.46,0,1,0,13.53,6.31"/><path class="cls-1" d="M71.07,39.08a17.53,17.53,0,0,0-7.16,1.64A17.28,17.28,0,0,0,58,45.13a12.39,12.39,0,0,0-3,6.55A39.77,39.77,0,0,1,59.17,48a.69.69,0,0,0,.06.32A7.46,7.46,0,1,0,72.75,42a.7.7,0,0,0-.18-.22,41.37,41.37,0,0,1,5.4-.85,12.45,12.45,0,0,0-6.9-1.86"/></svg>