<svg id="Layer_1" data-name="Layer 1" xmlns="http://www.w3.org/2000/svg" viewBox="0 0 100 100"><defs><style>.cls-1{fill:#fff;}</style></defs><title>Artboard 1 copy</title><path class="cls-1" d="M85.39,36.3a13.63,13.63,0,0,0,2.4-10.18c-.59-3.4-2.6-6.26-5.72-7.11-2.72-.74-5.24,0-7.69,1.85a38.64,38.64,0,0,0-4.12-3,13.73,13.73,0,0,0-6.07-5.22,8.88,8.88,0,0,0-7.26-.13,38.4,38.4,0,0,0-14.76,0,8.89,8.89,0,0,0-7.26.13,13.74,13.74,0,0,0-6.07,5.22,38.8,38.8,0,0,0-4.13,3C22.27,19,19.74,18.26,17,19c-3.11.85-5.13,3.71-5.72,7.11a13.65,13.65,0,0,0,2.4,10.18,38.44,38.44,0,1,0,71.68,0M49.55,85.42A35.22,35.22,0,0,1,16.11,39.1c4.69,4.33,15.09,10.83,15.5,11.09.34-.37,12.3-13.25,15-19.61,2.85-6.79,1.79-12-.87-15.34l-.06-.06a34.47,34.47,0,0,1,7.81,0l-.06.06c-2.66,3.37-3.72,8.56-.87,15.34,2.67,6.35,14.62,19.23,15,19.61C67.9,49.93,78.3,43.43,83,39.1A35.22,35.22,0,0,1,49.55,85.42"/><path class="cls-1" d="M69,55.29a103.87,103.87,0,0,0-19.45-1.72A103.81,103.81,0,0,0,30.1,55.29a2.66,2.66,0,0,0-2.33,2.65c0,9.32,7.19,18.7,21.78,18.7s21.78-9.38,21.78-18.7A2.67,2.67,0,0,0,69,55.29m-1.54,4.85c-.07.57-.18,1.25-.34,2s-.34,1.2-1.62,1c-2.46-.29-29.43-.29-31.89,0-1.29.15-1.44-.23-1.62-1s-.27-1.42-.34-2c-.12-1,0-1.63,1.65-1.9a102.39,102.39,0,0,1,32.52,0c1.66.28,1.76.95,1.65,1.9"/></svg>