<svg id="Layer_1" data-name="Layer 1" xmlns="http://www.w3.org/2000/svg" viewBox="0 0 100 100"><defs><style>.cls-1{fill:#fff;}</style></defs><title>Artboard 1 copy 4</title><circle class="cls-1" cx="64.73" cy="47.86" r="6.41"/><circle class="cls-1" cx="35.26" cy="47.86" r="6.41"/><path class="cls-1" d="M43.58,30.66c.69-.6-1.24-2.64-1.81-2.14a18.24,18.24,0,0,1-15,4c-.74-.14-1.39,2.59-.49,2.76a21,21,0,0,0,17.29-4.63"/><path class="cls-1" d="M73.21,32.34a18.23,18.23,0,0,1-15-4c-.57-.5-2.5,1.54-1.81,2.14A21,21,0,0,0,73.71,35.1c.9-.17.24-2.91-.5-2.76"/><path class="cls-1" d="M64.19,63.66A26.13,26.13,0,0,0,42.5,67.52c-1.54,1.11,1.35,5.16,2.89,4a21.51,21.51,0,0,1,17.5-3.12c1.82.48,3.25-4.24,1.3-4.78"/><path class="cls-1" d="M50,11.56A38.44,38.44,0,1,0,88.44,50,38.44,38.44,0,0,0,50,11.56Zm0,73.67A35.23,35.23,0,1,1,85.23,50,35.27,35.27,0,0,1,50,85.23Z"/></svg>