<?xml version="1.0" encoding="utf-8"?>
<!-- Generator: Adobe Illustrator 21.1.0, SVG Export Plug-In . SVG Version: 6.00 Build 0)  -->
<svg version="1.1" id="Layer_1" xmlns="http://www.w3.org/2000/svg" xmlns:xlink="http://www.w3.org/1999/xlink" x="0px" y="0px"
	 viewBox="0 0 100 100" style="enable-background:new 0 0 100 100;" xml:space="preserve">
<style type="text/css">
	.st0{fill:#231F20;}
</style>
<title>Artboard 1 copy 3</title>
<path class="st0" d="M81.5,53.5c0.1-0.3,0.1-0.7,0.2-1c0.3-2.4-0.1-4.8-1-7.1c-1-2.3-2.6-4.2-4.7-5.6c-1.2-0.9-2.4-1.6-3.7-2.2
	c0.4-1.3,0.5-2.7,0.4-4c-0.3-2.2-1.2-4.2-2.6-5.8c-1.5-1.6-3.5-2.7-5.6-3.3c-4-1.2-8.1-1.2-12-1.5c-1.8-0.1-3.6-0.3-5.4-0.7
	c-0.7-0.2-1.3-0.5-1.9-0.9c-0.4-0.4-0.7-0.9-0.7-1.4c-0.1-0.7,0-1.5,0.1-2.2c0.1-0.4,0.2-0.8,0.3-1.3c0.2-0.6,0.3-1.2,0.4-1.7
	c0.1-0.5,0-0.9-0.1-1.4c-0.1-0.4-0.3-0.8-0.6-1.1c-0.3-0.3-0.7-0.6-1.1-0.7c-0.5-0.1-1-0.2-1.6-0.1l-0.5,0.1l-0.4,0.1
	c-1.1,0.2-2.1,0.6-3.1,1c-3.9,1.7-7.2,4.6-9.4,8.2c-1.1,1.8-1.8,3.8-2.2,5.9c-0.4,2.1-0.2,4.2,0.4,6.3c0.5,1.4,1.1,2.7,1.8,4
	c-1.9,0.7-3.6,1.8-5.2,3c-2,1.5-3.5,3.5-4.4,5.8c-0.8,2.3-1.1,4.7-0.7,7.1c0,0.2,0.1,0.3,0.1,0.5c-4.8,1.8-6.9,6-6.9,13.3
	c0,15.8,19.7,21.5,38.2,21.5c25,0,38.7-7.6,38.7-21.5C88.4,59.5,86.3,55.2,81.5,53.5 M49.7,85.4c-17,0-35.1-4.8-35.1-18.4
	c0-6.4,1.8-9.3,4.9-10.5c0.6,1,1.3,2,2.2,2.8c1.6,1.5,3.6,2.7,5.7,3.5c-1.8-1.2-3.3-2.7-4.6-4.4c-1.2-1.6-1.9-3.5-2-5.5
	c0-1.9,0.4-3.8,1.2-5.6c0.9-1.7,2.2-3,3.7-4.1c1.7-1.1,3.6-1.9,5.6-2.4c0.7,0.8,1.5,1.5,2.3,2.1c-2.5-2.9-4.2-6.4-5-10.2
	c-0.5-3.6,0.4-7.3,2.6-10.2c2-3,4.9-5.3,8.3-6.6c0.7-0.3,1.4-0.5,2.1-0.6l0,0.2c-0.1,0.4-0.3,1-0.4,1.5c-0.3,1.2-0.4,2.4-0.2,3.5
	c0.2,1.4,0.9,2.7,2,3.6c1,0.8,2.1,1.3,3.3,1.6c2,0.5,4.1,0.7,6.2,0.7c4,0.1,7.8,0,11.3,0.8c1.7,0.3,3.3,1.1,4.6,2.2
	c1.3,1.2,2.1,2.8,2.5,4.5c0.4,1.8,0.3,3.6-0.4,5.3c-0.8,1.8-1.9,3.3-3.3,4.6c1.1-0.7,2.2-1.6,3.1-2.6c1.3,0.4,2.5,1,3.7,1.7
	c1.6,1,3,2.3,3.9,3.9c1,1.7,1.5,3.6,1.5,5.5c0.1,2-0.5,3.9-1.7,5.6c-1.2,1.7-2.7,3.3-4.5,4.5c2.1-0.8,4-2.1,5.5-3.7
	c0.7-0.7,1.3-1.6,1.8-2.5c3.2,1.1,4.9,4,4.9,10.6C85.4,83,63.1,85.4,49.7,85.4"/>
<path class="st0" d="M47,53c0-5.4-4.3-9.8-9.7-9.8c-5.4,0-9.8,4.3-9.8,9.7c0,5.4,4.3,9.8,9.7,9.8c0,0,0,0,0,0
	C42.6,62.8,47,58.4,47,53 M37.2,60.9c-4.4,0-7.9-3.6-7.8-8c0-4.4,3.6-7.9,8-7.8c4.3,0,7.8,3.6,7.8,7.9
	C45.2,57.4,41.6,60.9,37.2,60.9"/>
<ellipse class="st0" cx="39.7" cy="53" rx="4.4" ry="4.4"/>
<path class="st0" d="M62.7,43.2c-5.4,0-9.7,4.4-9.7,9.8c0,5.4,4.4,9.7,9.8,9.7c5.4,0,9.7-4.4,9.7-9.7C72.5,47.6,68.1,43.2,62.7,43.2
	 M62.7,60.9c-4.4,0-7.9-3.6-7.9-7.9s3.6-7.9,7.9-7.9c4.4,0,7.9,3.6,7.9,7.9C70.7,57.4,67.1,60.9,62.7,60.9"/>
<path class="st0" d="M60.3,48.6c-2.4,0-4.4,2-4.4,4.4s2,4.4,4.4,4.4c2.4,0,4.4-2,4.4-4.4C64.7,50.6,62.7,48.6,60.3,48.6
	C60.3,48.6,60.3,48.6,60.3,48.6"/>
<path class="st0" d="M50,65.6c-4.1,0-7.4,3.3-7.3,7.4c0,4.1,3.3,7.4,7.4,7.3c4,0,7.3-3.3,7.3-7.3C57.4,68.9,54.1,65.6,50,65.6
	C50,65.6,50,65.6,50,65.6"/>
</svg>
