<?xml version="1.0" encoding="utf-8"?>
<!-- Generator: Adobe Illustrator 21.1.0, SVG Export Plug-In . SVG Version: 6.00 Build 0)  -->
<svg version="1.1" id="Layer_1" xmlns="http://www.w3.org/2000/svg" xmlns:xlink="http://www.w3.org/1999/xlink" x="0px" y="0px"
	 viewBox="0 0 100 100" style="enable-background:new 0 0 100 100;" xml:space="preserve">
<style type="text/css">
	.st0{fill:#231F20;}
</style>
<title>Artboard 1 copy 8</title>
<path class="st0" d="M50,11.6c-21.2,0-38.4,17.2-38.4,38.4S28.8,88.4,50,88.4S88.4,71.2,88.4,50S71.2,11.6,50,11.6
	C50,11.6,50,11.6,50,11.6z M50,85.2c-19.5,0-35.2-15.8-35.2-35.2c0-19.5,15.8-35.2,35.2-35.2c19.5,0,35.2,15.8,35.2,35.2
	C85.2,69.4,69.4,85.2,50,85.2z"/>
<path class="st0" d="M50,62.6c-5.8,0-10.4,3.9-12.6,8.3c-0.6,1.2,0.2,2.4,1.1,1.7c7.4-6.1,15.6-6.2,23,0c0.9,0.7,1.7-0.5,1.1-1.7
	C60.3,66.5,55.8,62.6,50,62.6"/>
<path class="st0" d="M40.8,48.3c0-0.1,0.1-0.2,0.1-0.3c1.5,1.1,2.9,2.4,4.2,3.7c-0.3-2.4-1.4-4.7-3-6.5c-1.6-1.9-3.6-3.4-5.9-4.4
	c-2.2-1-4.7-1.6-7.2-1.6c-2.4-0.1-4.9,0.6-7,1.9c1.8,0.2,3.6,0.4,5.4,0.8c-0.1,0.1-0.1,0.1-0.2,0.2c-1.7,3.7-0.1,8.2,3.6,9.9
	C34.6,53.7,39,52.1,40.8,48.3"/>
<path class="st0" d="M71.1,39.1c-2.5,0-4.9,0.6-7.2,1.6c-2.3,1-4.3,2.5-5.9,4.4c-1.6,1.8-2.7,4.1-3,6.5c1.3-1.3,2.7-2.6,4.2-3.7
	c0,0.1,0,0.2,0.1,0.3c1.7,3.7,6.2,5.3,9.9,3.6c3.7-1.7,5.3-6.2,3.6-9.9l0,0c0-0.1-0.1-0.2-0.2-0.2c1.8-0.4,3.6-0.7,5.4-0.8
	C75.9,39.6,73.5,39,71.1,39.1"/>
</svg>
